<?xml version="1.0" encoding="utf-8"?>
<!-- Generator: Adobe Illustrator 24.0.2, SVG Export Plug-In . SVG Version: 6.00 Build 0)  -->
<svg version="1.1" id="Layer_1" xmlns="http://www.w3.org/2000/svg" xmlns:xlink="http://www.w3.org/1999/xlink" x="0px" y="0px"
	 viewBox="0 0 650 650" style="enable-background:new 0 0 650 650;" xml:space="preserve">
<style type="text/css">
	.st0{fill:#D2D2D2;}
	.st1{fill:#1E5AA8;}
	.st2{fill:#3C7B3B;}
	.st3{fill:#C8E9F5;}
	.st4{fill:#CFE385;}
	.st5{fill:#68C3E2;}
	.st6{fill:#A5CA18;}
	.st7{fill:#221F1F;}
</style>
<g>
	<path d="M306.4,484.1c0.6-0.1,1.1-0.2,1.7-0.3l2.7,15.4c-0.6,0-1.2,0.1-1.7,0.3L306.4,484.1z M305.7,501c0.6-0.4,1.2-0.7,1.8-1
		l-7.7-13.5c-0.6,0.3-1.2,0.7-1.8,1L305.7,501z M301.3,509.6c0-0.6,0.1-1.1,0.1-1.7h-15.5c0,0.5,0,1.1,0,1.6c0,0.5,0,1,0,1.5h15.4
		C301.3,510.5,301.3,510,301.3,509.6 M322.2,509.6c0.5,5.8-3.8,10.8-9.6,11.3c-5.8,0.5-10.8-3.8-11.3-9.6l0,0l-14.5,5.3
		c0.3,1.1,0.7,2.2,1.2,3.3l14.4-5.3l-11.8,10c0.7,1,1.6,2,2.5,2.9l11-9.3l-7.2,12.5c1.1,0.8,2.4,1.5,3.6,2.1l6.7-11.8l-2.4,13.4
		c1.5,0.4,3,0.7,4.5,0.8l2.2-12.5l2.2,12.5c1.6-0.1,3.1-0.4,4.7-0.8l-2.1-11.7l5.9,10.3c1.6-0.7,3.1-1.6,4.6-2.7l-5.4-9.4l8.4,7
		c1.3-1.3,2.5-2.7,3.5-4.3l-7.4-6.3l9,3.4c0.8-1.8,1.5-3.6,1.9-5.5l-7.9-2.8h8.4c0.1-1,0.2-2,0.2-2.9c0-1.1-0.1-2.3-0.2-3.4h-15.6
		C322,507.2,322.2,508.3,322.2,509.6 M301.5,507.2c0.2-0.9,0.6-1.8,1-2.6l-14.6-5.3c-0.4,0.9-0.7,1.7-1,2.6L301.5,507.2z
		 M331.1,492.4l-11.8,10c0.3,0.3,0.6,0.6,0.8,1l11.8-10C331.7,493,331.4,492.7,331.1,492.4 M325.3,487.4c-0.4-0.3-0.8-0.5-1.3-0.7
		l-7.7,13.5c0.4,0.2,0.9,0.5,1.3,0.7L325.3,487.4z M304.6,502l-11.9-10c-0.5,0.6-1.1,1.2-1.6,1.9l11.8,10
		C303.5,503.2,304,502.5,304.6,502 M312.7,499.3c0.5,0,1,0.1,1.5,0.3l2.7-15.4l-1.5-0.3L312.7,499.3z M480.4,521.3h2.3V534
		c0,5.4-2.5,8.1-7.4,8.1c-0.5,0-1,0-1.6-0.1c-0.5,0-1-0.1-1.5-0.3c-0.5-0.1-0.9-0.3-1.3-0.4c-0.3-0.1-0.7-0.3-1-0.5l0.6-1.9
		c1.4,0.8,3.1,1.2,4.7,1.1c1.4,0.1,2.8-0.4,3.8-1.4c0.9-1.3,1.4-2.8,1.2-4.4v-1.6c-0.4,0.8-1,1.4-1.8,1.9c-1,0.6-2.2,1-3.4,0.9
		c-0.9,0-1.8-0.2-2.6-0.5c-0.8-0.3-1.5-0.8-2.1-1.5c-0.5-0.7-1-1.5-1.2-2.3c-0.3-0.9-0.5-1.9-0.5-2.9c0-1,0.2-2,0.5-2.9
		c0.3-0.9,0.8-1.6,1.4-2.3c0.6-0.7,1.3-1.2,2.1-1.6c0.8-0.4,1.8-0.7,2.7-0.7c1.1,0,2.3,0.3,3.2,1c0.7,0.5,1.3,1.1,1.7,1.9
		L480.4,521.3z M479.1,531.9c0.4-0.5,0.8-1,1-1.6c0.2-0.7,0.4-1.4,0.4-2.1c0-0.7-0.1-1.4-0.3-2.1c-0.2-0.6-0.5-1.2-0.9-1.6
		c-0.4-0.5-0.9-0.8-1.5-1.1c-0.6-0.3-1.3-0.4-1.9-0.4c-0.6,0-1.3,0.1-1.9,0.4c-0.6,0.2-1.1,0.6-1.5,1.1c-0.4,0.5-0.8,1-1,1.6
		c-0.2,0.7-0.4,1.4-0.4,2.1c-0.1,1.4,0.4,2.7,1.3,3.7c0.9,0.9,2.1,1.4,3.4,1.4c0.6,0,1.3-0.1,1.9-0.4
		C478.2,532.8,478.7,532.4,479.1,531.9 M412.7,506.4c-0.7,0.1-1.5,0.2-2.3,0.2c-3.6,0-5.4-1.9-5.4-5.6v-5.2h-2.4v-4h2.4V488h5v3.7
		h4.7l-1.3,4h-3.4v4.2c-0.1,0.6,0.1,1.3,0.4,1.8c0.4,0.4,0.9,0.6,1.4,0.5c0.8,0,1.5-0.1,2.2-0.4l0.5,3.9c-0.6,0.2-1.2,0.4-1.9,0.5
		 M406.8,522.3c0.9,1.3,1.4,2.8,1.3,4.4v8.1h-2.4v-7.7c0.1-1.1-0.2-2.3-0.8-3.3c-0.6-0.7-1.6-1.1-2.5-1c-1.1-0.1-2.1,0.4-2.8,1.2
		c-0.7,1-1.1,2.2-1,3.4v7.4h-2.4v-20.6h2.4v9.1c0.3-0.7,0.8-1.3,1.4-1.7c0.9-0.6,1.9-0.9,3-0.9C404.4,520.7,405.8,521.2,406.8,522.3
		 M391.9,532.5l0.9,1.8c-0.7,0.4-1.4,0.6-2.1,0.8c-0.8,0.2-1.5,0.3-2.3,0.3c-1.1,0-2.1-0.2-3.1-0.5c-0.9-0.3-1.7-0.8-2.4-1.4
		c-0.6-0.6-1-1.4-1.3-2.2c-0.7-1.9-0.7-4,0-6c0.3-0.9,0.8-1.7,1.5-2.3c0.7-0.7,1.5-1.2,2.4-1.5c1-0.4,2-0.5,3-0.5
		c1.5,0,2.9,0.4,4.2,1.1l-0.9,1.7c-0.5-0.3-1-0.4-1.6-0.5c-0.5-0.1-1.1-0.2-1.6-0.2c-1.4-0.1-2.7,0.4-3.7,1.4
		c-1.8,2.2-1.8,5.4,0,7.6c1.1,1,2.5,1.5,3.9,1.4c1.2,0,2.3-0.3,3.4-0.7 M504.1,522.7c-0.5-0.6-1.2-1-1.9-1.4
		c-0.8-0.3-1.7-0.5-2.6-0.5c-0.9,0-1.8,0.2-2.7,0.5c-0.8,0.4-1.5,0.9-2.1,1.5c-0.6,0.7-1.1,1.5-1.4,2.3c-0.3,0.9-0.5,1.9-0.5,2.9
		c-0.1,2,0.6,3.9,2,5.3c1.5,1.3,3.5,2,5.5,1.9c1,0,2-0.1,2.9-0.4c0.9-0.2,1.7-0.6,2.4-1l-0.8-1.8c-1.4,0.7-2.9,1-4.4,1
		c-2.5,0.4-4.8-1.3-5.2-3.8c0-0.2,0-0.4-0.1-0.6h10.4c0-0.2,0-0.3,0-0.5c0-0.2,0-0.4,0-0.8c0-0.9-0.1-1.9-0.5-2.8
		C505,524,504.6,523.3,504.1,522.7 M499.4,522.9c2-0.2,3.8,1.3,4,3.3c0,0.1,0,0.2,0,0.3c0,0.2,0,0.4,0,0.5l0,0h-8.4
		c0.1-1,0.5-1.9,1.1-2.7c0.7-0.9,1.9-1.5,3.1-1.4 M375.9,522.7c-0.5-0.6-1.2-1.1-2-1.4c-0.8-0.3-1.6-0.5-2.5-0.5
		c-0.9,0-1.9,0.2-2.7,0.5c-0.8,0.4-1.5,0.9-2.1,1.5c-0.6,0.7-1.1,1.5-1.4,2.4c-0.3,1-0.5,2-0.5,3c-0.1,2,0.7,3.9,2.1,5.2
		c1.6,1.3,3.6,2,5.6,1.9c1,0,1.9-0.1,2.8-0.3c0.8-0.2,1.6-0.5,2.3-0.9l-0.9-1.7c-1.3,0.5-2.7,0.8-4.2,0.9c-1.5,0.1-2.9-0.3-4-1.3
		c-0.8-0.8-1.3-1.9-1.3-3h10.6c0-0.2,0-0.3,0-0.5c0-0.3,0-0.5,0-0.8c0-0.9-0.1-1.8-0.3-2.7c-0.3-0.8-0.7-1.5-1.3-2.1 M371.5,523
		c0.7,0,1.3,0.1,1.9,0.4c0.5,0.3,0.9,0.6,1.2,1c0.3,0.4,0.6,0.9,0.7,1.5c0.1,0.4,0.2,0.9,0.2,1.3h-8.4c0.1-1,0.5-2,1.1-2.9
		C369.1,523.5,370.3,522.9,371.5,523 M358.2,499.3l3.8,6.8h6.1l-5.3-8.4c1-0.6,1.8-1.4,2.4-2.4c0.6-1,0.8-2.1,0.8-3.2
		c0-1-0.2-2.1-0.6-3c-0.4-0.9-0.9-1.6-1.6-2.2c-0.8-0.6-1.6-1.1-2.6-1.4c-1.1-0.3-2.3-0.5-3.5-0.5h-7.6v21.1h5.3v-6.8h1.5
		L358.2,499.3z M355.4,489.3h1.6c2.4,0,3.6,1,3.6,2.9s-1.2,3-3.7,3h-1.5V489.3z M366.4,516.6h-7.2V535h-2.5v-18.4h-7.2v-2.1h17
		L366.4,516.6z M519.1,531.2c0,1.2-0.5,2.3-1.5,3c-1.2,0.8-2.6,1.2-4.1,1.1c-0.9,0-1.8-0.1-2.7-0.4c-0.7-0.2-1.5-0.5-2.1-1l1-1.7
		c1.1,0.7,2.4,1.1,3.8,1.1c0.8,0,1.6-0.1,2.4-0.5c0.5-0.3,0.8-0.9,0.8-1.5c0-0.3,0-0.5-0.1-0.8c-0.1-0.2-0.3-0.4-0.5-0.6
		c-0.3-0.2-0.6-0.4-1-0.5c-0.5-0.2-1.1-0.4-1.6-0.5c-1.2-0.3-2.3-0.9-3.2-1.6c-1.4-1.5-1.3-3.9,0.3-5.3c0,0,0.1-0.1,0.1-0.1
		c1.1-0.8,2.4-1.1,3.7-1.1c0.8,0,1.5,0.1,2.3,0.3c0.7,0.2,1.4,0.5,2.1,0.8l-0.9,1.7c-1-0.6-2.2-0.9-3.3-0.9c-1.9,0-2.8,0.6-2.8,1.7
		c0,0.5,0.2,1,0.6,1.4c0.7,0.5,1.4,0.8,2.2,1c0.8,0.2,1.5,0.5,2.2,0.8c0.5,0.2,1,0.6,1.5,0.9c0.4,0.3,0.6,0.7,0.8,1.2
		C519.1,530.2,519.1,530.7,519.1,531.2 M383.6,491.7h-4.7v1.7c-0.4-0.7-1-1.2-1.7-1.6c-0.7-0.4-1.6-0.6-2.4-0.5
		c-0.9,0-1.8,0.2-2.6,0.6c-0.8,0.4-1.5,1-2.1,1.6c-0.6,0.7-1.1,1.5-1.4,2.4c-0.3,1-0.5,2-0.5,3c0,1,0.2,2.1,0.5,3
		c0.3,0.9,0.8,1.7,1.4,2.4c0.6,0.7,1.3,1.2,2.1,1.5c0.8,0.4,1.7,0.6,2.7,0.6c0.9,0,1.7-0.2,2.5-0.5c0.7-0.3,1.3-0.9,1.7-1.5v1.6h4.6
		V491.7z M378.1,501.2c-0.5,0.6-1.3,0.9-2.1,0.9c-0.8,0-1.5-0.3-2.1-0.9c-1.1-1.3-1.1-3.3,0-4.6c0.5-0.6,1.3-0.9,2.1-0.9
		c0.8,0,1.6,0.3,2.1,0.9C379.2,497.9,379.2,499.8,378.1,501.2 M463.7,522.9c-0.6-0.7-1.4-1.2-2.3-1.5c-1.8-0.8-3.9-0.8-5.7,0
		c-0.8,0.3-1.6,0.9-2.3,1.5c-0.7,0.7-1.2,1.4-1.5,2.3c-0.7,1.9-0.7,3.9,0,5.8c0.3,0.9,0.8,1.6,1.5,2.3c0.6,0.7,1.4,1.2,2.3,1.5
		c1.8,0.7,3.9,0.7,5.7,0c0.9-0.4,1.6-0.9,2.3-1.5c0.7-0.7,1.2-1.4,1.5-2.3c0.7-1.9,0.7-3.9,0-5.8
		C464.9,524.4,464.4,523.6,463.7,522.9 M463,530.2c-0.2,0.6-0.5,1.2-1,1.6c-0.4,0.5-0.9,0.8-1.5,1c-1.2,0.5-2.6,0.5-3.9,0
		c-0.6-0.2-1.1-0.6-1.5-1c-0.4-0.5-0.8-1-1-1.6c-0.4-1.4-0.4-2.8,0-4.2c0.2-0.6,0.5-1.2,1-1.6c0.4-0.4,0.9-0.8,1.5-1
		c1.2-0.5,2.6-0.5,3.9,0c0.6,0.2,1.1,0.6,1.5,1c0.4,0.5,0.8,1,1,1.6C463.5,527.4,463.5,528.9,463,530.2 M423.1,522.4
		c0.9,1.3,1.4,2.9,1.3,4.4v8.1H422v-7.7c0.1-1.1-0.2-2.3-0.8-3.3c-0.6-0.7-1.5-1.1-2.4-1c-1.1-0.1-2.1,0.4-2.8,1.2
		c-0.7,1-1.1,2.2-1,3.4v7.4h-2.4v-13.7h2.2v2.4c0.3-0.7,0.8-1.4,1.4-1.9c0.9-0.7,2-1,3.1-1C420.7,520.8,422.1,521.3,423.1,522.4
		 M462.5,493.4c-0.7-0.7-1.6-1.2-2.5-1.6c-1-0.4-2.1-0.6-3.1-0.6c-1.1,0-2.1,0.2-3.2,0.6c-1.9,0.7-3.4,2.2-4.2,4c-0.4,1-0.6,2-0.6,3
		c0,2,0.8,4,2.3,5.4c0.7,0.7,1.6,1.2,2.5,1.6c1,0.4,2.1,0.6,3.2,0.6c1.1,0,2.1-0.2,3.1-0.6c0.9-0.4,1.8-0.9,2.5-1.6
		c0.7-0.7,1.3-1.5,1.6-2.4c0.4-1,0.6-2,0.6-3c0-1-0.2-2.1-0.6-3C463.7,494.9,463.1,494.1,462.5,493.4 M459.1,501.3
		c-0.6,0.6-1.4,1-2.3,0.9c-0.9,0-1.7-0.3-2.3-0.9c-0.6-0.7-0.9-1.6-0.9-2.5c0-0.9,0.3-1.8,0.9-2.5c0.6-0.6,1.4-1,2.3-0.9
		c0.9,0,1.7,0.3,2.3,0.9c0.6,0.7,0.9,1.6,0.9,2.5C460,499.8,459.7,500.7,459.1,501.3 M447.2,498.4c0-1-0.1-2-0.5-3
		c-0.3-0.8-0.8-1.6-1.4-2.3c-0.6-0.6-1.4-1.1-2.2-1.4c-1.9-0.7-4-0.7-6,0c-0.9,0.4-1.7,0.9-2.4,1.6c-0.7,0.7-1.2,1.5-1.5,2.4
		c-0.4,1-0.6,2-0.5,3.1c0,1.1,0.2,2.2,0.6,3.2c0.4,0.9,1,1.7,1.7,2.4c0.8,0.7,1.7,1.2,2.7,1.5c1.2,0.4,2.4,0.5,3.6,0.5
		c1.1,0,2.2-0.1,3.2-0.4c0.9-0.2,1.8-0.6,2.6-1.1l-1.6-3.2c-0.6,0.3-1.3,0.5-1.9,0.6c-0.6,0.1-1.2,0.2-1.9,0.2
		c-2.3,0-3.7-0.8-4.2-2.5h9.4C447.1,499.5,447.2,499,447.2,498.4 M437.5,497.2c0.3-1.6,1.2-2.4,2.6-2.4c0.6,0,1.2,0.2,1.6,0.6
		c0.5,0.5,0.7,1.1,0.8,1.8H437.5z M479.7,492.8c0.9,1.3,1.4,2.9,1.3,4.5v8.8h-5v-7.8c0-1.7-0.6-2.5-1.9-2.5c-0.6,0-1.2,0.2-1.6,0.7
		c-0.4,0.6-0.6,1.4-0.5,2.1v7.6h-5v-14.3h4.9v1.8c0.4-0.7,0.9-1.3,1.6-1.6c0.8-0.4,1.6-0.6,2.5-0.6c1.4-0.1,2.8,0.5,3.7,1.5
		 M486.9,521.3h2.4V535h-2.4V521.3z M440.1,523c-0.6-0.7-1.4-1.2-2.3-1.5c-1.8-0.8-3.9-0.8-5.7,0c-0.8,0.4-1.6,0.9-2.3,1.5
		c-0.7,0.7-1.2,1.4-1.5,2.3c-0.7,1.9-0.7,3.9,0,5.8c0.3,0.9,0.8,1.6,1.5,2.3c0.6,0.7,1.4,1.2,2.3,1.5c1.8,0.7,3.9,0.7,5.7,0
		c0.9-0.4,1.6-0.9,2.3-1.5c0.7-0.7,1.2-1.4,1.5-2.3c0.7-1.9,0.7-3.9,0-5.8C441.2,524.5,440.7,523.7,440.1,523 M439.4,530.3
		c-0.2,0.6-0.5,1.2-1,1.6c-0.4,0.5-0.9,0.8-1.5,1c-0.6,0.3-1.3,0.4-1.9,0.4c-0.7,0-1.3-0.1-1.9-0.4c-0.6-0.2-1.1-0.6-1.5-1
		c-0.4-0.5-0.8-1-1-1.6c-0.4-1.4-0.4-2.8,0-4.2c0.2-0.6,0.5-1.2,1-1.6c0.4-0.4,0.9-0.8,1.5-1c0.6-0.3,1.3-0.4,1.9-0.4
		c0.7,0,1.3,0.1,1.9,0.4c1.2,0.5,2.1,1.5,2.5,2.7C439.8,527.5,439.8,529,439.4,530.3 M425.6,506.1v-7.8c0-1.7-0.6-2.5-1.9-2.5
		c-0.6,0-1.2,0.2-1.6,0.7c-0.4,0.6-0.6,1.4-0.5,2.1v7.6h-5v-21.2h5v8.4c0.4-0.6,1-1.1,1.7-1.5c0.7-0.3,1.6-0.5,2.4-0.5
		c1.4-0.1,2.8,0.5,3.7,1.5c0.9,1.3,1.4,2.9,1.3,4.5v8.8H425.6z M489.4,515.1c0.6,0.7,0.6,1.7,0,2.4c-0.6,0.6-1.7,0.6-2.3,0
		c-0.6-0.7-0.6-1.7,0-2.4C487.7,514.5,488.7,514.5,489.4,515.1 M445.7,514.5h2.4V535h-2.4V514.5z M387.5,512.4h5.1l8.9-20.6h-5.3
		l-2.7,7.6l-2.9-7.6H385l5.9,13.5L387.5,512.4z"/>
	<path d="M138.2,508.8h-2.3v3.4h2.3c0.9,0.1,1.7-0.6,1.8-1.5c0-0.1,0-0.1,0-0.2c0-0.9-0.7-1.7-1.6-1.7
		C138.3,508.8,138.3,508.8,138.2,508.8z M138.3,514.5h-2.4v4.7h-2.4v-12.5h4.8c2.1,0,3.9,1.7,3.9,3.9
		C142.2,512.7,140.5,514.4,138.3,514.5L138.3,514.5z"/>
	<path d="M150.1,508.8h-2.4v3.3h2.3c0.9,0,1.6-0.7,1.6-1.6C151.7,509.6,150.9,508.8,150.1,508.8L150.1,508.8z M152,519.1l-2.4-5
		h-1.8v5h-2.4v-12.5h4.9c2.1-0.2,3.9,1.4,4,3.5c0,0.1,0,0.2,0,0.3c0,1.5-0.9,2.8-2.3,3.3l2.8,5.4L152,519.1z"/>
	<polygon points="157.7,519.1 157.7,506.7 165.9,506.7 165.9,508.8 160.1,508.8 160.1,511.7 165,511.7 165,513.9 160.1,513.9 
		160.1,516.9 165.9,516.9 165.9,519.1 157.7,519.1 	"/>
	<path d="M172.6,519.2c-1.7,0.1-3.3-0.5-4.6-1.6l1.6-1.6c0.8,0.7,1.9,1.1,3,1c1.4,0,2.2-0.5,2.2-1.5c0-0.4-0.1-0.8-0.4-1
		c-0.3-0.3-0.7-0.4-1.1-0.4l-1.5-0.2c-0.9-0.1-1.7-0.4-2.4-1c-0.6-0.7-0.9-1.6-0.8-2.5c0-2.1,1.8-3.8,3.9-3.8c0.1,0,0.2,0,0.3,0
		c1.5-0.1,2.9,0.4,4,1.4l-1.5,1.5c-0.7-0.6-1.6-0.9-2.6-0.9c-1.3,0-1.9,0.7-1.9,1.6c0,0.3,0.1,0.7,0.4,0.9c0.3,0.3,0.7,0.4,1.1,0.5
		l1.5,0.2c0.9,0,1.7,0.4,2.4,1c0.7,0.7,1,1.7,1,2.6C177.1,517.9,175,519.2,172.6,519.2L172.6,519.2z"/>
	<polygon points="180.4,519.1 180.4,506.7 188.6,506.7 188.6,508.8 182.8,508.8 182.8,511.7 187.7,511.7 187.7,513.9 182.8,513.9 
		182.8,516.9 188.6,516.9 188.6,519.1 180.4,519.1 	"/>
	<polygon points="199.2,519.1 194.3,511.5 194.3,519.1 191.8,519.1 191.8,506.7 194,506.7 198.9,514.3 198.9,506.7 201.4,506.7 
		201.4,519.1 199.2,519.1 	"/>
	<polygon points="209.9,508.8 209.9,519.1 207.5,519.1 207.5,508.8 204.2,508.8 204.2,506.7 213.2,506.7 213.2,508.8 209.9,508.8 	
		"/>
	<polygon points="216,519.1 216,506.7 224.2,506.7 224.2,508.8 218.4,508.8 218.4,511.7 223.4,511.7 223.4,513.9 218.4,513.9 
		218.4,516.9 224.2,516.9 224.2,519.1 216,519.1 	"/>
	<path d="M233.6,509.6c-0.4-0.5-1.1-0.8-1.8-0.8h-1.8v8.1h1.8c0.7,0.1,1.4-0.2,1.8-0.8c0.5-0.6,0.5-1.4,0.5-3.3
		C234.1,510.9,234.1,510.2,233.6,509.6z M235.3,517.9c-0.9,0.8-2.1,1.2-3.3,1.2h-4.5v-12.5h4.5c1.2-0.1,2.4,0.4,3.3,1.2
		c1.1,1.4,1.6,3.2,1.3,5C236.8,514.6,236.4,516.4,235.3,517.9L235.3,517.9z"/>
	<path d="M249.8,513.9h-2.5v3h2.5c0.8,0.1,1.5-0.5,1.6-1.3c0-0.1,0-0.2,0-0.3c0-0.8-0.6-1.5-1.4-1.5
		C250,513.9,249.9,513.9,249.8,513.9z M249.6,508.8h-2.4v2.9h2.4c0.8,0,1.4-0.6,1.4-1.4S250.4,508.8,249.6,508.8z M250,519.1h-5.2
		v-12.5h5c1.9-0.3,3.6,1,3.8,2.9c0,0.2,0,0.4,0,0.6c0,1.1-0.6,2.1-1.5,2.6c1.1,0.5,1.8,1.6,1.7,2.8c0.1,1.9-1.3,3.5-3.2,3.7
		C250.5,519.1,250.2,519.1,250,519.1z"/>
	<polygon points="262,514 262,519.1 259.5,519.1 259.5,514 255.8,506.7 258.4,506.7 260.8,511.7 263.1,506.7 265.7,506.7 262,514 	
		"/>
	<path class="st0" d="M186.1,248.8l17.7,17.7c0.2,0.2,0.2,0.4,0,0.6l-5.7,5.7c-0.2,0.2-0.4,0.2-0.6,0l-10.7-10.7
		c-0.2-0.2-0.5-0.2-0.6,0l-3.8,3.9c-0.2,0.2-0.2,0.4,0,0.6c0,0,0,0,0,0l9.6,9.6c0.2,0.2,0.2,0.5,0,0.6l-5.7,5.7
		c-0.2,0.2-0.4,0.2-0.6,0l-9.6-9.7c-0.2-0.2-0.4-0.2-0.6,0l-9.4,9.4c-0.2,0.2-0.5,0.2-0.6,0l-6.4-6.4c-0.2-0.2-0.2-0.4,0-0.6
		c0,0,0,0,0,0l26.4-26.4C185.6,248.7,185.9,248.7,186.1,248.8z"/>
	<path class="st0" d="M198.6,297.6l-2.2-2.3c-0.2-0.2-0.4-0.2-0.6,0c0,0,0,0,0,0l-8.4,8.4c-0.2,0.2-0.4,0.2-0.6,0l-6.4-6.4
		c-0.2-0.2-0.2-0.4,0-0.6c0,0,0,0,0,0l26.5-26.3c0.2-0.2,0.4-0.2,0.6,0l10.6,10.6c6.1,6.1,6.7,14.5,1.5,19.7
		c-3.3,3.1-8,4.1-12.3,2.6c-0.2-0.1-0.5,0-0.5,0.3c0,0,0,0,0,0l-4.3,15c-0.1,0.2-0.3,0.4-0.5,0.3c-0.1,0-0.1-0.1-0.2-0.1l-7.3-7.3
		c-0.1-0.1-0.2-0.3-0.1-0.5l4.3-12.8C198.8,297.9,198.8,297.7,198.6,297.6z M202.6,288.6c-0.2,0.2-0.2,0.5,0,0.6l3.8,3.8
		c2.3,2.3,4,2.5,5.7,0.8l1-1c1.6-1.6,1.3-3.4-0.9-5.7l-3.9-3.8c-0.2-0.2-0.4-0.2-0.6,0L202.6,288.6z"/>
	<path class="st0" d="M232.6,295.3l17.6,17.6c0.2,0.2,0.2,0.5,0,0.6l-5.7,5.7c-0.2,0.2-0.4,0.2-0.6,0c0,0,0,0,0,0l-10.6-10.6
		c-0.2-0.2-0.4-0.2-0.6,0l-3,3c-0.2,0.2-0.2,0.4,0,0.6l9.5,9.5c0.2,0.2,0.2,0.4,0,0.6l-5.7,5.7c-0.2,0.2-0.4,0.2-0.6,0c0,0,0,0,0,0
		l-9.5-9.5c-0.2-0.2-0.5-0.2-0.6,0l-3.7,3.9c-0.2,0.2-0.2,0.4,0,0.6l10.9,10.9c0.2,0.2,0.2,0.4,0,0.6l-5.7,5.7
		c-0.2,0.2-0.4,0.2-0.6,0l-17.8-17.8c-0.2-0.2-0.2-0.5,0-0.6l26.4-26.5C232.1,295.1,232.3,295.1,232.6,295.3
		C232.5,295.3,232.5,295.3,232.6,295.3z"/>
	<path class="st0" d="M254.3,317.1l6.4,6.4c0.2,0.2,0.2,0.4,0,0.6l-26.4,26.4c-0.2,0.2-0.4,0.2-0.6,0c0,0,0,0,0,0l-6.4-6.4
		c-0.2-0.2-0.2-0.4,0-0.6l26.4-26.4C253.9,316.9,254.1,316.9,254.3,317.1C254.3,317.1,254.3,317.1,254.3,317.1z"/>
	<path class="st0" d="M273.9,368.2l-10.9,11c-0.2,0.2-0.4,0.2-0.6,0l-4.8-4.8c-0.2-0.2-0.2-0.4,0-0.6l2.6-2.6c0.2-0.2,0.2-0.4,0-0.6
		c-0.1-0.1-0.2-0.1-0.3-0.1c-4.2,0.3-8.3-1.2-11.2-4.2c-6.7-6.7-6-18.1,1.9-25.9c8.2-8.2,19.3-8.5,27.1-0.6c5.8,6,6.7,15.2,2.1,22.1
		c-0.2,0.2-0.5,0.2-0.7,0c0,0,0,0,0,0l-6.8-6.8c-0.2-0.2-0.2-0.4,0-0.6c0,0,0,0,0,0c2.4-2.7,1.9-5.4-1.6-8.9
		c-4-3.9-7.3-3.8-11.7,0.6l-2.6,2.6c-5,5-4.9,8-0.4,12.5c3.3,3.3,5.7,4.2,8.7,2.1c0.2-0.2,0.2-0.5,0.1-0.6c0,0,0,0-0.1-0.1l-5.5-5.5
		c-0.2-0.2-0.2-0.4,0-0.6l5.2-4.9c0.2-0.2,0.4-0.2,0.6,0l8.9,8.9C276,362.7,276,366.1,273.9,368.2z"/>
	<path class="st0" d="M293.9,356.6l6.4,6.4c0.2,0.2,0.2,0.4,0,0.6c0,0,0,0,0,0l-9.3,9.4c-0.2,0.2-0.2,0.4,0,0.6c0,0,0,0,0,0l8.4,8.4
		c0.2,0.2,0.4,0.2,0.6,0c0,0,0,0,0,0l9.2-9.4c0.2-0.2,0.4-0.2,0.6,0c0,0,0,0,0,0l6.4,6.4c0.2,0.2,0.2,0.4,0,0.6l-26.4,26.4
		c-0.2,0.2-0.4,0.2-0.6,0c0,0,0,0,0,0l-6.4-6.4c-0.2-0.2-0.2-0.4,0-0.6l10.1-10.1c0.2-0.2,0.2-0.5,0-0.6l-8.4-8.4
		c-0.2-0.2-0.5-0.2-0.6,0l-10.1,10.1c-0.2,0.2-0.4,0.2-0.6,0l-6.4-6.3c-0.2-0.2-0.2-0.4,0-0.6c0,0,0,0,0,0l26.4-26.4
		c0.1-0.2,0.4-0.3,0.6-0.1C293.8,356.5,293.8,356.5,293.9,356.6z"/>
	<path class="st0" d="M319.4,394.9l-6.3-6.3c-0.2-0.2-0.2-0.4,0-0.6c0,0,0,0,0,0l5.8-5.8c0.2-0.2,0.4-0.2,0.6,0l20.3,20.3
		c0.2,0.2,0.2,0.4,0,0.6c0,0,0,0,0,0l-5.8,5.8c-0.2,0.2-0.4,0.2-0.6,0l-6.3-6.3c-0.2-0.2-0.5-0.2-0.6,0l-20.2,20
		c-0.2,0.2-0.4,0.2-0.6,0c0,0,0,0,0,0l-6.4-6.4c-0.2-0.2-0.2-0.4,0-0.6l20-20.1C319.5,395.3,319.5,395.1,319.4,394.9z"/>
	<path class="st0" d="M338.4,388.7l17-17c0.3-0.3,0.8-0.3,1.1,0l5.1,5.1c0.3,0.3,0.3,0.8,0,1.1l-10,10c-0.3,0.3-0.3,0.8,0,1.1
		l3.2,3.2c0.3,0.3,0.8,0.3,1.1,0l8.9-8.9c0.3-0.3,0.8-0.3,1.1,0l5,5.1c0.3,0.3,0.3,0.8,0,1.1c0,0,0,0,0,0l-8.9,8.9
		c-0.3,0.3-0.3,0.8,0,1.1l8.7,8.7c0.3,0.3,0.3,0.8,0,1.1l-5.8,5.8c-0.3,0.3-0.8,0.3-1.1,0l-25.5-25.5C338,389.5,338,389,338.4,388.7
		C338.3,388.7,338.3,388.7,338.4,388.7z"/>
	<path class="st0" d="M386,376.7l-1.8,1.8c-0.3,0.3-0.3,0.8,0,1.1c0,0,0,0,0,0l7.6,7.6c0.3,0.3,0.3,0.8,0,1.1l-5.8,5.8
		c-0.3,0.3-0.7,0.3-1.1,0.1c0,0,0,0-0.1-0.1l-25.5-25.4c-0.3-0.3-0.3-0.8,0-1.1l10.2-10.2c6-6,14.3-6.6,19.4-1.5
		c3,3.1,4,7.6,2.7,11.7c-0.1,0.4,0.1,0.9,0.5,1c0,0,0,0,0,0l13.8,3.9c0.4,0.1,0.7,0.6,0.6,1c0,0.1-0.1,0.3-0.2,0.4l-6.6,6.6
		c-0.2,0.2-0.5,0.3-0.8,0.2l-12.2-4.2C386.5,376.4,386.2,376.5,386,376.7z M377,372.4c0.3,0.3,0.8,0.3,1.1,0l3.5-3.5
		c2.2-2.2,2.5-4,0.8-5.6l-0.9-0.9c-1.6-1.6-3.4-1.3-5.6,0.8l-3.5,3.5c-0.3,0.3-0.3,0.8,0,1.1L377,372.4z"/>
	<path class="st0" d="M384.1,342.9l16.7-16.7c0.3-0.3,0.8-0.3,1.1,0c0,0,0,0,0,0l5.1,5.1c0.3,0.3,0.3,0.8,0,1.1l-10,10
		c-0.3,0.3-0.3,0.8,0,1.1l2.5,2.4c0.3,0.3,0.8,0.3,1.1,0l8.8-8.8c0.3-0.3,0.8-0.3,1.1,0l5.1,5.1c0.3,0.3,0.3,0.8,0,1.1l-8.9,8.8
		c-0.3,0.3-0.3,0.8,0,1.1l3.2,3.2c0.3,0.3,0.8,0.3,1.1,0l10.2-10.2c0.3-0.3,0.8-0.3,1.1,0l5.1,5.1c0.3,0.3,0.3,0.8,0,1.1l-16.9,16.9
		c-0.3,0.3-0.8,0.3-1.1,0l-25.5-25.5C383.8,343.7,383.8,343.2,384.1,342.9z"/>
	<path class="st0" d="M405.6,321.4l12.9-12.9c0.3-0.3,0.7-0.3,1,0l23,16.9l1.5-1.5l-19.8-19.8c-0.3-0.3-0.3-0.8,0-1.1c0,0,0,0,0,0
		l5.2-5.2c0.3-0.3,0.8-0.3,1.1,0l25.5,25.5c0.3,0.3,0.3,0.8,0,1.1c0,0,0,0,0,0l-12.3,12.3c-0.3,0.3-0.7,0.3-1,0l-22.6-16.4
		c-0.3-0.3-0.7-0.3-1,0l-0.8,0.8c-0.3,0.3-0.3,0.8,0,1.1l19.3,19.2c0.3,0.3,0.3,0.8,0,1.1l-5.2,5.2c-0.3,0.3-0.8,0.3-1.1,0
		l-25.5-25.5C405.4,322.1,405.4,321.7,405.6,321.4z"/>
	<path class="st0" d="M450.1,310l3.4-20.6c0-0.3,0-0.5-0.2-0.7l-1.2-1.2l-11.6,11.6c-0.3,0.3-0.8,0.3-1.1,0l-5.1-5.1
		c-0.3-0.3-0.3-0.8,0-1.1l18-18c0.3-0.3,0.8-0.3,1.1,0c0,0,0,0,0,0l9.1,9.1c0.2,0.2,0.3,0.4,0.2,0.7l-3.5,20.7c0,0.3,0,0.5,0.2,0.7
		l1.2,1.2l12.9-12.9c0.3-0.3,0.8-0.3,1.1,0l5.1,5.1c0.3,0.3,0.3,0.8,0,1.1l-19.2,19.2c-0.3,0.3-0.8,0.3-1.1,0l-9.1-9.1
		C450.1,310.5,450,310.3,450.1,310z"/>
	<path class="st0" d="M491.9,273.4l-1.5,1.5c-0.3,0.3-0.3,0.8,0,1.1l6.4,6.3c0.3,0.3,0.3,0.8,0,1.1l-5.8,5.8c-0.3,0.3-0.8,0.3-1.1,0
		l-6.4-6.4c-0.3-0.3-0.8-0.3-1.1,0l-1.6,1.6c-0.2,0.3-0.6,0.4-1,0.3L456,272.5c-0.4-0.2-0.5-0.7-0.3-1.1c0-0.1,0.1-0.1,0.1-0.2
		l6.4-6.4c0.3-0.3,0.7-0.3,1-0.1l15.3,8.7c0.3,0.2,0.7,0.1,1-0.1l1.3-1.4c0.3-0.3,0.3-0.7,0.1-1l-8.7-15.3c-0.2-0.3-0.1-0.7,0.1-1
		l6.2-6.3c0.3-0.3,0.8-0.3,1.2,0c0.1,0.1,0.1,0.1,0.1,0.2l12.2,23.8C492.3,272.7,492.2,273.1,491.9,273.4z"/>
	<path class="st1" d="M376.6,140.8L335,182.3v-26.9l41.5-41.5V140.8z"/>
	<path class="st2" d="M199.2,227.5v-26.7l86.7-86.9v26.9L199.2,227.5z"/>
	<path class="st3" d="M335.9,277.4l42.6,42.6l87.9-87.9l-87.9-87.9l-42.6,42.6l44,44c0.7,0.7,0.7,1.9,0,2.7L335.9,277.4z"/>
	<path class="st4" d="M199.9,232.1l87.9,87.9l42.7-42.6l-44-44c-0.7-0.7-0.7-1.9,0-2.7l44-44l-42.6-42.6L199.9,232.1z"/>
	<path d="M360.3,329.6l-25.7-25.7c-0.7-0.7-1.9-0.7-2.7,0c0,0,0,0,0,0l-25.7,25.7c-0.7,0.7-0.7,1.9,0,2.7c0,0,0,0,0,0l25.7,25.8
		c0.8,0.7,1.9,0.7,2.7,0l25.7-25.8C361,331.5,361,330.3,360.3,329.6C360.3,329.6,360.3,329.6,360.3,329.6z"/>
	<path class="st2" d="M359.8,248l-42.6-42.6l15.9-15.9l42.6,42.6L359.8,248z"/>
	<path d="M315.9,448.7c-1,0-1.9,0.2-2.8,0.7L131.5,267.8l37.1-37.1c3,1.6,6.7,0.5,8.3-2.4c1.6-3,0.5-6.7-2.4-8.3
		c-3-1.6-6.7-0.5-8.3,2.4c-0.5,0.9-0.7,1.9-0.7,2.9c0,0.9,0.2,1.8,0.6,2.6l-38.6,38.5c-0.7,0.7-0.7,1.9,0,2.7c0,0,0,0,0,0l183,183
		c-1.5,3-0.3,6.7,2.7,8.2c3,1.5,6.7,0.3,8.2-2.7c1.5-3,0.3-6.7-2.7-8.2C317.8,448.9,316.8,448.7,315.9,448.7z M171.5,223
		c1.3,0,2.3,1,2.3,2.3c0,1.3-1,2.3-2.3,2.3c-1.3,0-2.3-1-2.3-2.3c0,0,0,0,0,0C169.1,224,170.2,223,171.5,223
		C171.4,223,171.5,223,171.5,223z M315.9,457.2c-1.3,0-2.3-1-2.3-2.3c0-1.3,1-2.3,2.3-2.3s2.3,1,2.3,2.3l0,0
		C318.2,456.1,317.1,457.2,315.9,457.2z"/>
	<polygon class="st5" points="376.6,236.6 335.9,277.4 346.9,288.4 376.6,258.8 	"/>
	<polygon class="st5" points="419.4,279 440.6,257.8 419.4,236.6 	"/>
	<polygon class="st6" points="246.9,185.1 225.7,206.3 246.9,227.5 	"/>
	<path d="M519.6,244.3c-1,0-1.9,0.2-2.8,0.7L379.8,107.9c-0.7-0.7-1.9-0.7-2.7,0c0,0,0,0,0,0l-43.8,43.9l-31.3-31.3l-12.7-12.6
		c-0.1-0.1-0.3-0.2-0.4-0.3l0,0c-0.2-0.1-0.4-0.2-0.6-0.3l0,0h-0.4h-0.2c-0.3,0-0.7,0.2-0.9,0.4l0,0l0,0l-90.8,90.9l0,0
		c-0.1,0.1-0.2,0.2-0.2,0.3c0,0,0,0.1,0,0.1v0.2c0,0.1,0,0.1,0,0.2v0.2c0,0,0,0.2,0,0.3l0,0v32.1c0,0.1,0,0.3,0,0.4c0,0,0,0.1,0,0.1
		l0,0c0,0,0,0,0,0.1v0.2c0,0,0,0.1,0,0.1c0.1,0.1,0.1,0.2,0.2,0.3l90.6,90.6c0.4,0.4,0.9,0.5,1.4,0.5c0.5,0,1-0.2,1.3-0.5l43.8-44
		l44,44c0.4,0.4,0.8,0.5,1.3,0.5c0.5,0,1-0.2,1.4-0.5l90.6-90.6l0,0c0.1-0.1,0.2-0.2,0.2-0.3c0.1-0.1,0.1-0.1,0.1-0.2l0,0
		c0-0.1,0-0.2,0-0.3l0,0c0-0.2,0-0.5,0-0.8l0,0v-0.3l0,0c0-0.1-0.1-0.1-0.1-0.2c-0.1-0.1-0.1-0.2-0.2-0.3l-89.9-90.2v-26.9
		l133.8,133.8c-1.5,3-0.3,6.7,2.7,8.2c3,1.5,6.7,0.3,8.2-2.7c1.5-3,0.3-6.7-2.7-8.2C521.5,244.5,520.5,244.3,519.6,244.3z
		 M335,155.4l41.5-41.5v26.9L335,182.3V155.4z M333.2,189.5l42.6,42.6l-16,15.9l-42.6-42.7L333.2,189.5z M199.2,200.8l86.7-86.9
		v26.9l-86.7,86.7V200.8z M246.9,185.1v42.3l-21.2-21.2L246.9,185.1z M287.9,320l-62.2-62.2l24.4-24.4c0.1-0.1,0.2-0.2,0.2-0.3
		c0,0,0-0.1,0-0.1v-0.2c0,0,0-0.1,0-0.2v-0.2c0-0.1,0-0.3,0-0.4v-50.7l37.1-37.2l43,42.5l-43.8,43.8c-0.7,0.7-0.7,1.9,0,2.7
		l43.9,44.1L287.9,320z M290.6,232.1l16-15.9l42.6,42.6l-16,15.9L290.6,232.1z M335.9,277.4l40.7-40.7v22.1l-29.6,29.6L335.9,277.4z
		 M419.4,279v-42.3l21.2,21.2L419.4,279z M416.2,230.7c-0.1,0.1-0.2,0.2-0.2,0.3c0,0,0,0.1,0,0.1v0.2v0.2c0,0.1,0,0.1,0,0.2
		c0,0.1,0,0.3,0,0.4v50.7l-37.2,37.2l-29.2-28.8l30.2-30.2c0.4-0.4,0.5-0.8,0.5-1.3v-27.5c0-0.1,0-0.3,0-0.4c0-0.1,0-0.1,0-0.2v-0.2
		v-0.2V231c-0.1-0.1-0.1-0.2-0.2-0.3l-44.3-44l42.6-42.6l62.2,62.2L416.2,230.7z M519.6,252.8c-1.3,0-2.3-1-2.3-2.3s1-2.3,2.3-2.3
		c1.3,0,2.3,1,2.3,2.3l0,0C521.9,251.7,520.9,252.8,519.6,252.8z"/>
	<path d="M186.1,244.1l17.7,17.7c0.2,0.2,0.2,0.4,0,0.6l-5.7,5.7c-0.2,0.2-0.4,0.2-0.6,0l-10.7-10.7c-0.2-0.2-0.5-0.2-0.6,0
		l-3.8,3.8c-0.2,0.2-0.2,0.4,0,0.6c0,0,0,0,0,0l9.6,9.6c0.2,0.2,0.2,0.4,0,0.6l-5.7,5.7c-0.2,0.2-0.4,0.2-0.6,0l-9.6-9.6
		c-0.2-0.2-0.4-0.2-0.6,0l-9.4,9.4c-0.2,0.2-0.5,0.2-0.6,0l-6.4-6.4c-0.2-0.2-0.2-0.4,0-0.6c0,0,0,0,0,0l26.4-26.5
		C185.6,243.9,185.9,243.9,186.1,244.1z"/>
	<path d="M198.6,292.8l-2.2-2.2c-0.2-0.2-0.4-0.2-0.6,0c0,0,0,0,0,0l-8.4,8.4c-0.2,0.2-0.4,0.2-0.6,0l-6.4-6.4
		c-0.2-0.2-0.2-0.4,0-0.6c0,0,0,0,0,0l26.5-26.5c0.2-0.2,0.4-0.2,0.6,0l10.6,10.6c6.1,6.1,6.7,14.5,1.5,19.7
		c-3.3,3.1-8,4.1-12.3,2.6c-0.2-0.1-0.5,0-0.5,0.3c0,0,0,0,0,0l-4.3,15c-0.1,0.2-0.3,0.4-0.5,0.3c-0.1,0-0.1-0.1-0.2-0.1l-7.3-7.3
		c-0.1-0.1-0.2-0.3-0.1-0.5l4.3-12.9C198.8,293.1,198.7,292.9,198.6,292.8z M202.6,283.8c-0.2,0.2-0.2,0.4,0,0.6l3.8,3.8
		c2.3,2.3,4,2.5,5.7,0.8l1-0.9c1.6-1.7,1.3-3.5-0.9-5.7l-3.9-3.9c-0.2-0.2-0.4-0.2-0.6,0L202.6,283.8z"/>
	<path d="M232.6,290.5l17.6,17.6c0.2,0.2,0.2,0.5,0,0.6l-5.7,5.7c-0.2,0.2-0.4,0.2-0.6,0c0,0,0,0,0,0l-10.6-10.6
		c-0.2-0.2-0.4-0.2-0.6,0c0,0,0,0,0,0l-3,3c-0.2,0.2-0.2,0.4,0,0.6l9.5,9.5c0.2,0.2,0.2,0.5,0,0.6l-5.7,5.6c-0.2,0.2-0.4,0.2-0.6,0
		c0,0,0,0,0,0l-9.5-9.5c-0.2-0.2-0.4-0.2-0.6,0c0,0,0,0,0,0l-3.8,3.8c-0.2,0.2-0.2,0.4,0,0.6l10.9,10.9c0.2,0.2,0.2,0.4,0,0.6
		l-5.7,5.7c-0.2,0.2-0.4,0.2-0.6,0l-17.8-17.8c-0.2-0.2-0.2-0.5,0-0.6l26.5-26.4C232.1,290.3,232.4,290.3,232.6,290.5z"/>
	<path d="M254.3,312.3l6.4,6.4c0.2,0.2,0.2,0.4,0,0.6l-26.4,26.4c-0.2,0.2-0.5,0.2-0.6,0l-6.4-6.4c-0.2-0.2-0.2-0.5,0-0.6l26.4-26.4
		C253.9,312.1,254.2,312.1,254.3,312.3z"/>
	<path d="M273.9,363.4L263,374.3c-0.2,0.2-0.4,0.2-0.6,0l-4.8-4.8c-0.2-0.2-0.2-0.4,0-0.6l2.6-2.5c0.2-0.2,0.2-0.5,0-0.6
		c-0.1-0.1-0.2-0.1-0.3-0.1c-4.2,0.3-8.2-1.2-11.2-4.2c-6.7-6.7-6-18.2,1.9-26c8.2-8.2,19.3-8.5,27.1-0.6c5.8,6,6.7,15.2,2.1,22.1
		c-0.2,0.2-0.5,0.2-0.7,0c0,0,0,0,0,0l-6.8-6.7c-0.2-0.2-0.2-0.4,0-0.6c2.4-2.7,1.9-5.4-1.6-8.9c-4-4-7.3-3.8-11.7,0.6l-2.6,2.6
		c-5,5-4.9,8-0.4,12.5c3.3,3.3,5.7,4.2,8.7,2.1c0.2-0.1,0.2-0.4,0.1-0.6c0,0,0-0.1-0.1-0.1l-5.5-5.5c-0.2-0.2-0.2-0.5,0-0.6l5.1-5.1
		c0.2-0.2,0.4-0.2,0.6,0l9,9.1C276,357.9,276,361.3,273.9,363.4z"/>
	<path d="M293.9,351.8l6.4,6.4c0.2,0.2,0.2,0.4,0,0.6c0,0,0,0,0,0l-9.3,9.4c-0.2,0.2-0.2,0.4,0,0.6c0,0,0,0,0,0l8.4,8.4
		c0.2,0.2,0.4,0.2,0.6,0c0,0,0,0,0,0l9.4-9.3c0.2-0.2,0.4-0.2,0.6,0l6.4,6.4c0.2,0.2,0.2,0.4,0,0.6l-26.5,26.3
		c-0.2,0.2-0.4,0.2-0.6,0c0,0,0,0,0,0l-6.4-6.4c-0.2-0.2-0.2-0.5,0-0.6l10.1-10.1c0.2-0.2,0.2-0.4,0-0.6l-8.4-8.4
		c-0.2-0.2-0.5-0.2-0.6,0l-10.1,10.1c-0.2,0.2-0.4,0.2-0.6,0l-6.4-6.4c-0.2-0.2-0.2-0.4,0-0.6c0,0,0,0,0,0l26.4-26.4
		c0.2-0.2,0.4-0.2,0.6-0.1C293.8,351.7,293.8,351.7,293.9,351.8z"/>
	<path d="M319.4,390.2l-6.3-6.3c-0.2-0.2-0.2-0.4,0-0.6c0,0,0,0,0,0l5.8-5.8c0.2-0.2,0.4-0.2,0.6,0l20.3,20.3c0.2,0.2,0.2,0.4,0,0.6
		c0,0,0,0,0,0l-5.8,5.8c-0.2,0.2-0.4,0.2-0.6,0l-6.3-6.3c-0.2-0.2-0.5-0.2-0.6,0l-20.2,19.9c-0.2,0.2-0.4,0.2-0.6,0c0,0,0,0,0,0
		l-6.4-6.4c-0.2-0.2-0.2-0.4,0-0.6l20-20C319.5,390.6,319.6,390.3,319.4,390.2z"/>
	<path d="M338.4,383.9l17-17c0.3-0.3,0.8-0.3,1.1,0c0,0,0,0,0,0l5.1,5.1c0.3,0.3,0.3,0.8,0,1.1l-10,10c-0.3,0.3-0.3,0.8,0,1.1
		l3.2,3.2c0.3,0.3,0.8,0.3,1.1,0l8.9-8.9c0.3-0.3,0.8-0.3,1.1,0l5,5.1c0.3,0.3,0.3,0.8,0,1.1c0,0,0,0,0,0l-8.9,8.9
		c-0.3,0.3-0.3,0.8,0,1.1l8.7,8.7c0.3,0.3,0.3,0.8,0,1.1l-5.8,5.8c-0.3,0.3-0.8,0.3-1.1,0l-25.5-25.5
		C338,384.7,338,384.2,338.4,383.9z"/>
	<path d="M386,372l-1.8,1.8c-0.3,0.3-0.3,0.8,0,1.1c0,0,0,0,0,0l7.6,7.6c0.3,0.3,0.3,0.8,0,1.1l-5.8,5.8c-0.3,0.3-0.8,0.3-1.1,0
		c0,0,0,0,0,0L359.4,364c-0.3-0.3-0.3-0.8,0-1.1c0,0,0,0,0,0l10.2-10.2c6-6,14.3-6.7,19.4-1.5c3,3.1,4,7.6,2.7,11.7
		c-0.1,0.4,0.1,0.9,0.5,1c0,0,0,0,0,0l13.8,3.9c0.4,0.1,0.7,0.6,0.6,1c0,0.1-0.1,0.3-0.2,0.4l-6.6,6.6c-0.2,0.2-0.5,0.3-0.8,0.2
		l-12.2-4.2C386.5,371.6,386.2,371.7,386,372z M377,367.8c0.3,0.3,0.8,0.3,1.1,0c0,0,0,0,0,0l3.5-3.5c2.2-2.2,2.5-4,0.8-5.6
		l-0.9-0.9c-1.6-1.6-3.4-1.3-5.6,0.9l-3.5,3.5c-0.3,0.3-0.3,0.8,0,1.1L377,367.8z"/>
	<path d="M384.1,338.1l16.7-16.7c0.3-0.3,0.8-0.3,1.1,0l5.1,5.1c0.3,0.3,0.3,0.8,0,1.1l-10,10c-0.3,0.3-0.3,0.8,0,1.1l2.5,2.4
		c0.3,0.3,0.8,0.3,1.1,0l8.8-8.8c0.3-0.3,0.8-0.3,1.1,0l5.1,5.1c0.3,0.3,0.3,0.8,0,1.1l-8.9,8.8c-0.3,0.3-0.3,0.8,0,1.1l3.2,3.2
		c0.3,0.3,0.8,0.3,1.1,0l10.2-10.2c0.3-0.3,0.8-0.3,1.1,0c0,0,0,0,0,0l5.1,5.1c0.3,0.3,0.3,0.8,0,1.1l-16.9,16.9
		c-0.3,0.3-0.8,0.3-1.1,0l-25.5-25.5C383.8,339,383.8,338.4,384.1,338.1z"/>
	<path d="M405.6,316.6l12.9-12.9c0.3-0.3,0.7-0.3,1,0l23,16.9l1.5-1.5l-19.8-19.8c-0.3-0.3-0.3-0.8,0-1.1c0,0,0,0,0,0l5.2-5.2
		c0.3-0.3,0.8-0.3,1.1,0c0,0,0,0,0,0l25.5,25.5c0.3,0.3,0.3,0.8,0,1.1l-12.3,12.3c-0.3,0.3-0.7,0.3-1,0l-22.6-16.3
		c-0.3-0.3-0.7-0.3-1,0l-0.8,0.8c-0.3,0.3-0.3,0.8,0,1.1l19.3,19.3c0.3,0.3,0.3,0.8,0,1.1c0,0,0,0,0,0l-5.3,5.3
		c-0.3,0.3-0.8,0.3-1.1,0l-25.5-25.5C405.3,317.5,405.3,317,405.6,316.6C405.6,316.7,405.6,316.6,405.6,316.6z"/>
	<path d="M450.1,305.2l3.4-20.6c0-0.3,0-0.5-0.2-0.7l-1.2-1.2l-11.6,11.6c-0.3,0.3-0.8,0.3-1.1,0c0,0,0,0,0,0l-5.1-5.1
		c-0.3-0.3-0.3-0.8,0-1.1l18-18c0.3-0.3,0.8-0.3,1.1,0c0,0,0,0,0,0l9.1,9.1c0.2,0.2,0.3,0.5,0.2,0.7l-3.5,20.7c0,0.3,0,0.5,0.2,0.7
		l1.2,1.2l12.9-12.9c0.3-0.3,0.8-0.3,1.1,0c0,0,0,0,0,0l5.1,5.1c0.3,0.3,0.3,0.8,0,1.1L460.5,315c-0.3,0.3-0.8,0.3-1.1,0l-9.1-9.1
		C450.1,305.7,450,305.5,450.1,305.2z"/>
	<path d="M491.9,268.6l-1.5,1.5c-0.3,0.3-0.3,0.8,0,1.1l6.4,6.4c0.3,0.3,0.3,0.8,0,1.1l-5.8,5.8c-0.3,0.3-0.8,0.3-1.1,0l-6.4-6.4
		c-0.3-0.3-0.8-0.3-1.1,0l-1.6,1.6c-0.2,0.3-0.6,0.3-0.9,0.1L456,267.7c-0.4-0.2-0.5-0.7-0.3-1.1c0-0.1,0.1-0.1,0.1-0.2l6.4-6.4
		c0.3-0.3,0.7-0.3,1-0.1l15.3,8.7c0.3,0.2,0.7,0.1,1-0.1l1.3-1.4c0.3-0.3,0.3-0.7,0.1-1l-8.7-15.4c-0.2-0.3-0.1-0.7,0.1-1l6.2-6.2
		c0.3-0.3,0.8-0.3,1.1,0c0.1,0.1,0.1,0.1,0.2,0.2l12.2,23.7C492.2,268,492.1,268.3,491.9,268.6z"/>
	<path class="st7" d="M501.9,273.1c-0.5,0.6-1.3,1-2.1,1v-1.3c0.5,0,0.9-0.3,1.2-0.6c0.4-0.4,0.5-0.7,0.2-1
		c-0.1-0.1-0.2-0.1-0.3-0.2c-0.1,0-0.3,0.1-0.4,0.2l-0.6,0.4c-0.3,0.3-0.8,0.4-1.2,0.5c-0.4,0-0.8-0.2-1.1-0.5
		c-0.7-0.8-0.7-2,0.1-2.7c0,0,0.1-0.1,0.1-0.1c0.5-0.5,1.2-0.9,1.9-0.9v1.3c-0.4,0-0.8,0.2-1,0.5c-0.4,0.4-0.3,0.7-0.1,0.9
		c0.1,0,0.2,0,0.3,0c0.2,0,0.3-0.1,0.4-0.2l0.6-0.4c0.3-0.3,0.7-0.5,1.2-0.5c0.5,0,0.9,0.2,1.2,0.6c0.7,0.9,0.6,2.2-0.2,2.9
		C502,273,502,273.1,501.9,273.1z"/>
	<path class="st7" d="M507.1,267.9l-2.1-2.1l0.4,1.6l-0.6,0.6l-1.6-0.4l2.1,2.1l-1,1l-4.2-4.2l1-1l2.8,0.9l-0.9-2.8l1-1l4.2,4.2
		L507.1,267.9z"/>
	<path class="st1" d="M333.2,274.7l-42.6-42.6l16-15.9l42.6,42.6L333.2,274.7z"/>
</g>
</svg>
